<?xml version="1.0" standalone="no"?><!DOCTYPE svg PUBLIC "-//W3C//DTD SVG 1.1//EN" "http://www.w3.org/Graphics/SVG/1.1/DTD/svg11.dtd"><svg t="1523189117263" class="icon" style="" viewBox="0 0 1025 1024" version="1.1" xmlns="http://www.w3.org/2000/svg" p-id="2225" xmlns:xlink="http://www.w3.org/1999/xlink" width="200.1953125" height="200"><defs><style type="text/css"></style></defs><path d="M667.400004 412.189846 667.400004 62.524778 1022.055919 62.524778 1022.055919 412.189846 667.400004 412.189846ZM963.017463 123.279941 727.204155 123.279941 727.204155 353.747773 963.017463 353.747773 963.017463 123.279941ZM842.70506 838.286448 841.533999 838.286448 841.533999 681.167839 685.633119 681.167839 685.633119 838.286448 626.12092 838.286448 626.12092 617.232144 842.70506 617.232144 842.70506 838.286448ZM466.056208 312.711258 534.575211 312.711258 534.575211 687.157995 466.056208 687.157995 466.056208 312.711258ZM474.164095 37.516549 529.943334 37.516549 529.943334 220.229732 474.164095 220.229732 474.164095 37.516549ZM330.573736 501.065395 465.937908 501.065395 465.937908 556.165766 330.573736 556.165766 330.573736 501.065395ZM4.905921 62.524778 359.561836 62.524778 359.561836 412.189846 4.905921 412.189846 4.905921 62.524778ZM64.710071 353.747773 300.525007 353.747773 300.525007 123.279941 64.710071 123.279941 64.710071 353.747773ZM190.303644 501.035277 190.303644 558.580061 5.305318 558.580061 5.305318 501.035277 190.303644 501.035277ZM354.657543 1001.048454 0.001899 1001.048454 0.001899 651.383385 354.657543 651.383385 354.657543 1001.048454ZM295.620986 712.136106 59.807406 712.136106 59.807406 942.60638 295.620986 942.60638 295.620986 712.136106ZM534.516875 989.201908 462.728343 989.201908 462.728343 806.488996 534.516875 806.488996 534.516875 989.201908ZM829.169755 498.084019 1009.655589 498.084019 1009.655589 558.580061 829.169755 558.580061 829.169755 498.084019ZM949.144081 619.48527 1009.655589 619.48527 1009.655589 993.929022 949.144081 993.929022 949.144081 991.673183 635.145361 991.673183 635.145361 928.795947 949.144081 928.795947 949.144081 619.48527Z" p-id="2226"></path></svg>